PathFileType	4	(X/Y/Z)	Patient4_TMGait_0pt3_02_left_27.trc.trc
DataRate	CameraRate	NumFrames	NumMarkers	Units	OrigDataRate	OrigDataStartFrame	OrigNumFrames
54.687500000000	54.687500000000	5	33	mm	54.687500000000	124	       141
Frame#	Time	Sacral			L.Shoulder			Chest			R.Shoulder			Neck			R.ASIS			L.ASIS			R.Thigh.Superior			R.Thigh.Lateral			R.Thigh.Inferior			R.Patella			L.Thigh.Superior			L.Thigh.Lateral			L.Thigh.Inferior			L.Patella			L.Shank.Superior			L.Shank.Lateral			L.Shank.Inferior			R.Shank.Superior			R.Shank.Lateral			R.Shank.Inferior			R.Heel			R.Midfoot.Superior			R.Midfoot.Lateral			R.Toe			L.Heel			L.Midfoot.Lateral			L.Midfoot.Superior			L.Toe			L.Elbow			L.Wrist			R.Elbow			R.Wrist			
		X1	Y1	Z1	X2	Y2	Z2	X3	Y3	Z3	X4	Y4	Z4	X5	Y5	Z5	X6	Y6	Z6	X7	Y7	Z7	X8	Y8	Z8	X9	Y9	Z9	X10	Y10	Z10	X11	Y11	Z11	X12	Y12	Z12	X13	Y13	Z13	X14	Y14	Z14	X15	Y15	Z15	X16	Y16	Z16	X17	Y17	Z17	X18	Y18	Z18	X19	Y19	Z19	X20	Y20	Z20	X21	Y21	Z21	X22	Y22	Z22	X23	Y23	Z23	X24	Y24	Z24	X25	Y25	Z25	X26	Y26	Z26	X27	Y27	Z27	X28	Y28	Z28	X29	Y29	Z29	X30	Y30	Z30	X31	Y31	Z31	X32	Y32	Z32	X33	Y33	Z33	

124	55.179142857143	750.014717957879	1009.101427743425	559.544197788954	910.978245050995	1420.959673311114	336.995206594216	1040.534449999260	1353.148756491637	478.106771371342	996.515099898538	1438.113324402924	660.297411567985	922.601127578704	1487.985687831273	490.797377466758	992.152360040089	930.533955888469	638.886294220666	938.798592882042	955.274964717496	370.049041683338	1000.440317540953	722.698579848323	596.799058191417	913.717596028163	617.732472593550	661.343461456607	969.701809842840	562.968211283393	568.809978550275	957.933834500951	474.193485797388	570.191614737472	1012.944194549214	764.132860436562	397.455579464185	951.530289213099	639.982673711937	322.667046205674	1050.554909569511	575.028248799694	384.137778706298	1073.795273124357	512.550187213559	381.616111449006	1057.039295447710	443.037590559322	368.728000826911	993.795631580723	314.879909700260	310.609916783434	1079.258647844845	214.232684593026	365.824771936548	916.212448049611	389.265313804808	576.601542321280	838.369634672671	292.588441725436	642.402096684933	855.808001122171	198.008857037359	569.586291386427	698.694164983695	43.389329888898	545.220573739122	872.929413706221	95.911285830467	572.044367544796	785.791754270939	37.076874715024	615.017863942996	993.454212812611	41.322703252688	593.489101248100	993.110428742454	36.334603044303	394.526777783366	1070.457064464046	43.460887185445	317.899489798050	1141.648373974170	118.158803766538	345.707859032653	1275.264133068027	87.717423411406	323.348876462595	755.160440861446	1099.102621317888	266.122110544647	720.131975976961	841.029326295873	281.566737289182	1154.488018990313	1140.967459766684	777.167247145073	1364.098025266514	1242.634421857490	684.519835924322	
125	55.197428571429	750.836945121852	1008.437827554423	558.318287539449	911.236174179062	1419.902684255937	334.442483167079	1041.383429045668	1352.081362050614	475.108362011201	998.080094740667	1437.362206057133	657.217289187578	923.435828828521	1487.089033293016	488.134760514990	993.399262838556	929.799868033948	636.975059002379	938.863260782401	953.941724017797	368.383244147871	1000.388257564962	721.706764479553	595.315218246927	912.881281336297	617.260271862491	660.246454138033	968.117933006755	561.943331469870	567.840756895787	955.577716683942	473.183399971821	569.458009350970	1011.944159502196	761.508635990321	394.455046584158	947.391861767698	637.344693091781	321.642686049233	1047.183164455888	572.404376908362	381.763198157605	1069.707804103081	510.223679289223	379.994067257875	1053.307192258910	440.761330371839	367.506165423489	989.933402734700	312.305488933386	310.508468906388	1076.051301884333	212.090015320301	365.447218332344	913.213997964863	388.565801307954	575.967463673548	834.718425370734	292.584141770180	642.228143911918	851.323623837068	197.750958814373	569.419773494039	693.261995418798	43.568205753997	545.299397406772	867.599719296080	95.910145364211	572.095294941536	780.373937073268	37.090528872521	615.044636919264	988.029090869242	41.092898344997	593.502036919796	989.248121383882	36.173228124712	395.210108203684	1066.277147076550	41.907818179619	318.143269226009	1139.118279296913	114.735199111845	345.848037762589	1271.925611051744	81.422276335917	322.821169831138	755.167078771721	1098.259914558264	265.445807423411	718.346776168602	840.263895276960	281.590444881181	1162.089933724834	1144.110446469063	772.828845158155	1364.542880744287	1256.525157917435	677.577679136762	
126	55.215714285714	751.923001794539	1007.733268307411	556.903122316875	911.578169061541	1418.857332134785	331.706939750779	1042.314902759329	1351.090686662566	471.940643657660	999.693449141512	1436.634319096052	653.998929905587	924.343306080795	1486.241540410924	485.266407629331	994.788969938409	929.078035272917	634.858396048510	939.106145018089	952.743929823324	366.524879476939	1000.628305716235	720.739695207154	593.671762520469	912.320479595040	616.789942360279	658.939234727665	966.876673016664	560.935098521337	566.699468953353	953.564715982751	472.142953009581	568.559307795605	1011.346624537955	759.262759775679	391.551041038591	944.144028034642	635.050357239375	320.568036320977	1044.597959598837	570.246959909241	379.564600527624	1066.371350086618	508.169907768391	378.482924812510	1050.245549573728	438.615795442005	366.340522179762	986.430058591251	310.055528491823	310.305013498014	1072.726391061062	209.959072700586	365.102242786639	910.496631126194	387.880406132481	575.222370220762	831.260498051336	292.678222292348	641.974008231576	846.981405794006	197.547699835344	569.219036891541	687.872130613065	43.886772816675	545.401892464964	862.336870888507	95.932361436964	572.153529808808	775.000413354202	37.159440386207	615.081765546573	982.636318199087	40.829242735927	593.522927804633	984.541064946316	36.278601243126	395.782543845984	1061.373084088247	40.422038593057	318.376263394412	1136.052645887576	111.171990488815	346.107692577880	1267.995770905815	74.596200361013	322.613871036585	756.103938432546	1096.949081019754	264.369694356755	717.982682796570	838.992928885530	281.014836907483	1168.822963789427	1146.767454012293	768.473560921346	1364.750276528153	1267.939432724636	671.084312197131	
127	55.234000000000	753.238583679275	1007.076799945754	555.281814356581	912.003233906208	1417.905267382425	328.822254460059	1043.339339720011	1350.227442639516	468.611529384929	1001.404933325821	1435.983293667832	650.662991035632	925.344137203144	1485.505664597478	482.230204172723	996.274910106250	928.412867821694	632.505813046878	939.502336706117	951.767811063609	364.439070277260	1001.059301854978	719.833493065648	591.853957124434	911.942079626769	616.377122168181	657.428208373130	965.885950982279	559.989515241041	565.391180839032	951.798743447727	471.124820567987	567.507133202921	1011.188982741547	757.541008289552	388.801736500183	941.973929409309	633.243126129475	319.385126698883	1042.923785418826	568.674881763845	377.564028402287	1063.905745579347	506.488551310132	377.088563783581	1047.995554074648	436.715133219921	365.222800123309	983.508758980679	308.234945207695	309.922410417004	1069.472226703115	207.962636871123	364.779747950344	907.988838314534	387.258506752814	574.379986775558	827.940789884961	292.915820363409	641.637908351822	842.761133736505	197.443437688627	568.994171902938	682.525826539035	44.395907725145	545.532237415803	857.147606509909	95.985668670779	572.219349483020	769.668966842724	37.311417167576	615.131561442498	977.271765575116	40.534890816107	593.552803638102	979.318969775014	36.580100593947	396.196791721970	1056.074471853396	39.091543197735	318.565286933978	1132.598497542942	107.746319845287	346.440767352919	1263.697021981764	67.833273503358	322.701272600437	757.803120472465	1095.334458656735	262.872019209289	718.958802301195	837.364518968804	279.788823512753	1174.701600131145	1148.910977858622	764.121551961075	1364.995237112548	1276.952960202183	664.999611672812	
128	55.252285714286	754.728883842139	1006.552086396157	553.420714103301	912.521257436664	1417.119471785941	325.815833066812	1044.465348490654	1349.530763587419	465.133956910700	1003.245732425665	1435.448949194749	647.228580721931	926.455909501622	1484.932460401752	479.062592933158	997.807791375927	927.845662058760	629.892578560809	940.034230384483	951.074007689057	362.091305878663	1001.577328019469	719.023102389524	589.852273700454	911.652876724217	616.076373252796	655.725077950812	965.055854934922	559.150261218618	563.927036420878	950.192356746406	470.178846343962	566.321273485764	1011.503495140954	756.451293492890	386.240854252795	941.001506655779	632.014087771681	318.053066511222	1042.242543577099	567.754526054296	375.762856730897	1062.389449875994	505.228728437893	375.808582198502	1046.631131895152	435.129054849665	364.150050629260	981.294346125020	306.913054913670	309.322358841404	1066.388486132677	206.189987537902	364.482578122379	905.621643626808	386.744951530539	573.456881122149	824.702772308937	293.338572211946	641.218659657999	838.638864965023	197.479028901997	568.756512025980	677.218905681939	45.146889684312	545.693015104694	852.031831596134	96.077508443277	572.292184342003	764.370661636441	37.576069770088	615.196127682520	971.924912284062	40.215365631488	593.592145828930	973.825589518344	36.999715412743	396.441131804587	1050.603148421454	37.986235363618	318.691262671877	1128.822658026451	104.692760392722	346.800720374675	1259.159404998921	61.650877347066	323.006340898973	760.106139404274	1093.584102942981	260.933138513238	721.190359326929	835.532635340107	277.868556847553	1179.756143086925	1150.528094592253	759.782597118985	1365.509686096587	1283.661629832811	659.286524003443	
